# xmcd
#
# Track frame offsets:
#	150
#	39642
#	116962
#
# Disc length: 2536 seconds
#
# Revision: 4
# Processed by: cddbd v1.5PL3 Copyright (c) Steve Scherf et al.
# Submitted via: CDex 1.50Beta5
#
DISCID=2509e603
DTITLE=菊地雅章 - SLASH 2°
DYEAR=2002
DGENRE=Jazz
TTITLE0=9.28
TTITLE1=SLASH 1(LONG VERSION)
TTITLE2=T’S MONK
EXTD=
EXTT0=
EXTT1=
EXTT2=
PLAYORDER=
